<svg xmlns="http://www.w3.org/2000/svg" xmlns:xlink="http://www.w3.org/1999/xlink" width="500" zoomAndPan="magnify" viewBox="0 0 375 374.999991" height="500" preserveAspectRatio="xMidYMid meet" version="1.0"><defs><clipPath id="c3a5dc5737"><path d="M 78 72 L 297 72 L 297 287 L 78 287 Z M 78 72 " clip-rule="nonzero"/></clipPath><clipPath id="54de80b958"><path d="M 187.519531 58.808594 L 305.785156 177.070312 L 187.519531 295.335938 L 69.257812 177.070312 Z M 187.519531 58.808594 " clip-rule="nonzero"/></clipPath><clipPath id="60a9c8e825"><path d="M 187.519531 58.808594 L 305.785156 177.070312 L 187.519531 295.335938 L 69.257812 177.070312 Z M 187.519531 58.808594 " clip-rule="nonzero"/></clipPath></defs><g clip-path="url(#c3a5dc5737)"><g clip-path="url(#54de80b958)"><g clip-path="url(#60a9c8e825)"><path fill="#5271ff" d="M 185.207031 103.691406 L 182.542969 103.707031 L 182.277344 103.707031 C 173.792969 103.558594 166.886719 96.5625 166.886719 88.046875 C 166.882812 79.535156 173.789062 72.542969 182.269531 72.394531 L 182.539062 72.394531 L 185.203125 72.378906 L 192.507812 72.398438 C 201.113281 72.398438 208.152344 79.4375 208.167969 88.054688 C 208.167969 96.65625 201.117188 103.710938 192.515625 103.710938 Z M 171.957031 238.105469 L 171.957031 243.671875 L 171.960938 270.96875 C 171.964844 279.570312 179.003906 286.609375 187.621094 286.625 C 196.238281 286.613281 203.277344 279.574219 203.273438 270.972656 L 203.269531 243.679688 L 203.269531 238.113281 L 203.265625 222.457031 C 203.265625 213.855469 196.222656 206.8125 187.605469 206.796875 L 171.949219 206.796875 L 169.167969 206.808594 L 138.898438 206.804688 C 130.296875 206.800781 123.257812 213.839844 123.242188 222.457031 C 123.246094 231.058594 130.300781 238.113281 138.902344 238.117188 L 169.171875 238.121094 Z M 296.449219 177.589844 L 296.464844 177.601562 C 296.46875 186.203125 289.414062 193.257812 280.8125 193.257812 L 94.410156 193.207031 C 85.792969 193.222656 78.738281 186.167969 78.753906 177.550781 C 78.75 168.949219 85.789062 161.910156 94.40625 161.894531 L 280.808594 161.945312 C 289.410156 161.945312 296.449219 168.984375 296.449219 177.589844 Z M 251.960938 132.828125 C 251.960938 141.429688 244.921875 148.46875 236.304688 148.484375 L 215.085938 148.480469 L 169.15625 148.472656 L 138.886719 148.464844 C 130.285156 148.464844 123.230469 141.410156 123.226562 132.808594 C 123.242188 124.191406 130.28125 117.152344 138.882812 117.152344 L 169.152344 117.160156 L 215.078125 117.167969 L 236.300781 117.171875 C 244.902344 117.171875 251.957031 124.226562 251.960938 132.828125 Z M 251.960938 132.828125 " fill-opacity="1" fill-rule="evenodd"/></g></g></g></svg>