<svg data-name="Calque 1" xmlns="http://www.w3.org/2000/svg" width="500" zoomAndPan="magnify" height="500" viewBox="0 0 626.66 626.66" preserveAspectRatio="xMidYMid meet" version="1.0">
  <defs>
    <style>
      .cls-1 {
        stroke: #000;
        stroke-miterlimit: 10;
        stroke-width: 2px;
      }
    </style>
  </defs>
  <path class="cls-1" d="M479.86,49.06c-20.27-12.8-42.1-23.33-65.17-31.23C382.91,6.92,348.81,1,313.33,1,172.71,1,53.79,93.94,14.65,221.73c-4.03,13.16-7.22,26.7-9.5,40.54-2.74,16.61-4.16,33.67-4.16,51.06,0,20.44,1.96,40.42,5.72,59.77,4.64,24.01,12.05,47.04,21.86,68.74,13.97,30.9,32.81,59.11,55.56,83.67,13.24,14.29,27.8,27.35,43.49,38.96-1.77-12.52-2.68-25.32-2.68-38.34,0-5.64,.17-11.23,.51-16.77,.55-8.99,1.53-17.86,2.94-26.6,21.5,4.68,43.83,7.14,66.72,7.14,24.79,0,48.9-2.89,72.01-8.35,3.29,16.89,5.02,34.35,5.02,52.21,0,16.15-1.41,31.96-4.12,47.34-2.39,13.6-5.79,26.85-10.13,39.66,13.52,2.42,27.34,3.97,41.4,4.59,4.65,.21,9.33,.31,14.03,.31,152.39,0,279.29-109.14,306.8-253.52h0c3.59-18.85,5.49-38.31,5.53-58.19v-.62c0-111.27-58.19-208.96-145.8-264.27ZM98.73,431.49c-3.71,11.66-6.74,23.61-9.07,35.82-11.47-16.63-21.13-34.6-28.71-53.64-12.36-31.04-19.15-64.91-19.15-100.35,0-16.15,1.41-31.96,4.12-47.34,43.96,7.39,84.34,25.34,118.43,51.15-29.4,32.63-52.02,71.49-65.62,114.35Zm96.38,17.6c-19.63,0-38.77-2.08-57.22-6.05,11.91-37.08,31.56-70.68,57.07-98.91,26.95,27.62,48.07,60.96,61.34,98.03-19.66,4.53-40.15,6.93-61.19,6.93Zm389.23-118.99c-8.66,142.15-126.69,254.75-271.01,254.75-1.52,0-3.03-.02-4.54-.05,2.74-16.61,4.16-33.67,4.16-51.06,0-22.02-2.28-43.51-6.62-64.24-2.82-13.51-6.51-26.69-11.03-39.5-15.18-43.13-39.56-81.92-70.79-114.02-9.58-9.85-19.8-19.07-30.61-27.59-39.39-31.07-86.43-52.86-137.84-62.07C92.31,119.04,193.8,41.8,313.33,41.8c48.79,0,94.58,12.87,134.15,35.41,19.76,11.24,37.98,24.91,54.24,40.58,42.57,41.01,71.77,95.8,80.45,157.19,1.77,12.52,2.68,25.32,2.68,38.34,0,5.64-.17,11.23-.51,16.77Z"/>
  <path class="cls-1" d="M267.57,158.5c-25.27,0-45.76,20.49-45.76,45.76s20.49,45.76,45.76,45.76,45.76-20.49,45.76-45.76-20.49-45.76-45.76-45.76Zm0,85.55c-21.97,0-39.78-17.81-39.78-39.78s17.81-39.78,39.78-39.78,39.78,17.81,39.78,39.78-17.81,39.78-39.78,39.78Z"/>
  <path class="cls-1" d="M267.57,182.91c-11.79,0-21.36,9.56-21.36,21.36s9.56,21.36,21.36,21.36,21.36-9.56,21.36-21.36-9.56-21.36-21.36-21.36Zm0,39.92c-10.25,0-18.57-8.31-18.57-18.57s8.31-18.57,18.57-18.57,18.57,8.31,18.57,18.57-8.31,18.57-18.57,18.57Z"/>
</svg>